<mxfile host="app.diagrams.net" modified="2023-06-06T09:21:55.439Z" agent="Mozilla/5.0 (Macintosh; Intel Mac OS X 10_15_7) AppleWebKit/537.36 (KHTML, like Gecko) Chrome/109.0.0.0 Safari/537.36" version="21.3.7" etag="CJQPIUEBdVck9ECi_pm5" type="github">
  <diagram name="Страница 1" id="aJ7JxxEHpPaqvejBUoR0">
    <mxGraphModel>
      <root>
        <mxCell id="0" />
        <mxCell id="1" parent="0" />
      </root>
    </mxGraphModel>
  </diagram>
</mxfile>
